<svg xmlns="http://www.w3.org/2000/svg" xmlns:xlink="http://www.w3.org/1999/xlink" version="1.1" x="0px" y="0px" viewBox="0 0 100 125" enable-background="new 0 0 100 100" xml:space="preserve"><path d="M50,5C25.147,5,5,25.147,5,50c0,24.852,20.147,45,45,45c24.854,0,45-20.148,45-45C95,25.147,74.854,5,50,5z M28.667,39.889  c0-3.881,3.146-7.027,7.027-7.027c3.881,0,7.027,3.146,7.027,7.027c0,3.881-3.146,7.027-7.027,7.027  C31.813,46.916,28.667,43.77,28.667,39.889z M65.975,65.081c-0.217,0.329-5.427,8.052-15.976,8.052  c-10.55,0-15.76-7.724-15.976-8.052c-0.608-0.923-0.353-2.164,0.569-2.771c0.922-0.608,2.158-0.354,2.767,0.562  c0.185,0.275,4.315,6.259,12.64,6.259c8.339,0,12.469-6.005,12.642-6.26c0.614-0.915,1.854-1.165,2.771-0.554  C66.328,62.928,66.581,64.16,65.975,65.081z M64.307,46.915c-3.882,0-7.027-3.146-7.027-7.027c0-3.881,3.146-7.027,7.027-7.027  c3.881,0,7.026,3.146,7.026,7.027C71.333,43.769,68.188,46.915,64.307,46.915z"/><text x="0" y="115" fill="#000000" font-size="5px" font-weight="bold" font-family="'Helvetica Neue', Helvetica, Arial-Unicode, Arial, Sans-serif">Created by Luke Peek</text><text x="0" y="120" fill="#000000" font-size="5px" font-weight="bold" font-family="'Helvetica Neue', Helvetica, Arial-Unicode, Arial, Sans-serif">from the Noun Project</text></svg>