<svg xmlns="http://www.w3.org/2000/svg" xmlns:xlink="http://www.w3.org/1999/xlink" version="1.1" x="0px" y="0px" viewBox="0 0 1024 1280" style="enable-background:new 0 0 1024 1024;" xml:space="preserve"><g><g><path d="M390.7,210.2c17.5,0,35,0,52.5,0c41.6,0,83.3,0,124.9,0c50.3,0,100.7,0,151,0c43.8,0,87.6,0,131.4,0    c21.1,0,42.3,0.3,63.4,0c0.3,0,0.6,0,0.9,0c20.9,0,41-18.4,40-40c-1-21.7-17.6-40-40-40c-17.5,0-35,0-52.5,0    c-41.6,0-83.3,0-124.9,0c-50.3,0-100.7,0-151,0c-43.8,0-87.6,0-131.4,0c-21.1,0-42.3-0.3-63.4,0c-0.3,0-0.6,0-0.9,0    c-20.9,0-41,18.4-40,40C351.7,191.9,368.3,210.2,390.7,210.2L390.7,210.2z"/></g></g><g><g><path d="M98.7,210.2c36.2,0,72.4,0,108.6,0c5.1,0,10.3,0,15.4,0c20.9,0,41-18.4,40-40c-1-21.7-17.6-40-40-40    c-36.2,0-72.4,0-108.6,0c-5.1,0-10.3,0-15.4,0c-20.9,0-41,18.4-40,40C59.7,191.9,76.3,210.2,98.7,210.2L98.7,210.2z"/></g></g><g><g><path d="M306.7,214.3c-3.7,0-7.4-0.3-11.1-0.7c3.5,0.5,7.1,1,10.6,1.4c-7.6-1.1-14.9-3.1-22-6    c3.2,1.3,6.4,2.7,9.6,4c-6.5-2.8-12.5-6.4-18.1-10.6c2.7,2.1,5.4,4.2,8.1,6.3c-5.9-4.6-11.1-9.8-15.7-15.7    c2.1,2.7,4.2,5.4,6.3,8.1c-4.3-5.6-7.8-11.7-10.6-18.1c1.3,3.2,2.7,6.4,4,9.6c-3-7.1-5-14.4-6-22c0.5,3.5,1,7.1,1.4,10.6    c-0.9-7.4-0.9-14.8,0-22.2c-0.5,3.5-1,7.1-1.4,10.6c1.1-7.6,3.1-14.9,6-22c-1.3,3.2-2.7,6.4-4,9.6c2.8-6.5,6.4-12.5,10.6-18.1    c-2.1,2.7-4.2,5.4-6.3,8.1c4.6-5.9,9.8-11.1,15.7-15.7c-2.7,2.1-5.4,4.2-8.1,6.3c5.6-4.3,11.7-7.8,18.1-10.6    c-3.2,1.3-6.4,2.7-9.6,4c7.1-3,14.4-5,22-6c-3.5,0.5-7.1,1-10.6,1.4c7.4-0.9,14.8-0.9,22.2,0c-3.5-0.5-7.1-1-10.6-1.4    c7.6,1.1,14.9,3.1,22,6c-3.2-1.3-6.4-2.7-9.6-4c6.5,2.8,12.5,6.4,18.1,10.6c-2.7-2.1-5.4-4.2-8.1-6.3c5.9,4.6,11.1,9.8,15.7,15.7    c-2.1-2.7-4.2-5.4-6.3-8.1c4.3,5.6,7.8,11.7,10.6,18.1c-1.3-3.2-2.7-6.4-4-9.6c3,7.1,5,14.4,6,22c-0.5-3.5-1-7.1-1.4-10.6    c0.9,7.4,0.9,14.8,0,22.2c0.5-3.5,1-7.1,1.4-10.6c-1.1,7.6-3.1,14.9-6,22c1.3-3.2,2.7-6.4,4-9.6c-2.8,6.5-6.4,12.5-10.6,18.1    c2.1-2.7,4.2-5.4,6.3-8.1c-4.6,5.9-9.8,11.1-15.7,15.7c2.7-2.1,5.4-4.2,8.1-6.3c-5.6,4.3-11.7,7.8-18.1,10.6    c3.2-1.3,6.4-2.7,9.6-4c-7.1,3-14.4,5-22,6c3.5-0.5,7.1-1,10.6-1.4C314.1,214,310.4,214.3,306.7,214.3c-10.3,0.1-21,4.4-28.3,11.7    c-6.9,6.9-12.2,18.3-11.7,28.3c1,21.5,17.6,40.2,40,40c24.1-0.2,49.6-7.1,69.3-21.3c12.9-9.3,22.6-18.9,32.1-31.6    c7.1-9.6,12-20.2,16.1-31.4c8.6-23,8.7-50.3,2.1-73.7c-6.4-22.6-19.8-44.9-38.1-59.9c-12.3-10-23.8-16.9-38.5-22.8    C338.3,49,326.1,47,313.7,46c-24.1-2-50.2,4.8-70.9,17.4c-20.1,12.2-37.9,30.6-47.7,52.1c-3.1,6.8-6.1,13.7-8.1,20.8    c-2.1,7.4-3,15-3.9,22.6c-1.5,12.8-0.2,25.6,2.3,38.2c5,25,19.9,50.3,39.7,66.5c13,10.6,25.2,17.8,40.9,23.8    c12.8,4.9,27.1,6.8,40.7,6.9c20.9,0.2,41-18.5,40-40C345.7,232.5,329.1,214.5,306.7,214.3z"/></g></g><g><g><path d="M780.7,552.2c39.2,0,78.4,0,117.5,0c5.5,0,11,0,16.5,0c20.9,0,41-18.4,40-40c-1-21.7-17.6-40-40-40    c-39.2,0-78.4,0-117.5,0c-5.5,0-11,0-16.5,0c-20.9,0-41,18.4-40,40C741.7,533.9,758.3,552.2,780.7,552.2L780.7,552.2z"/></g></g><g><g><path d="M98.7,552.2c17.1,0,34.3,0,51.4,0c40.8,0,81.6,0,122.4,0c49.5,0,99,0,148.5,0c42.8,0,85.6,0,128.4,0    c20.8,0,41.6,0.3,62.4,0c0.3,0,0.6,0,0.9,0c20.9,0,41-18.4,40-40c-1-21.7-17.6-40-40-40c-17.1,0-34.3,0-51.4,0    c-40.8,0-81.6,0-122.4,0c-49.5,0-99,0-148.5,0c-42.8,0-85.6,0-128.4,0c-20.8,0-41.6-0.3-62.4,0c-0.3,0-0.6,0-0.9,0    c-20.9,0-41,18.4-40,40C59.7,533.9,76.3,552.2,98.7,552.2L98.7,552.2z"/></g></g><g><g><path d="M696.7,556.3c-3.7,0-7.4-0.3-11.1-0.7c3.5,0.5,7.1,1,10.6,1.4c-7.6-1.1-14.9-3.1-22-6    c3.2,1.3,6.4,2.7,9.6,4c-6.5-2.8-12.5-6.4-18.1-10.6c2.7,2.1,5.4,4.2,8.1,6.3c-5.9-4.6-11.1-9.8-15.7-15.7    c2.1,2.7,4.2,5.4,6.3,8.1c-4.3-5.6-7.8-11.7-10.6-18.1c1.3,3.2,2.7,6.4,4,9.6c-3-7.1-5-14.4-6-22c0.5,3.5,1,7.1,1.4,10.6    c-0.9-7.4-0.9-14.8,0-22.2c-0.5,3.5-1,7.1-1.4,10.6c1.1-7.6,3.1-14.9,6-22c-1.3,3.2-2.7,6.4-4,9.6c2.8-6.5,6.4-12.5,10.6-18.1    c-2.1,2.7-4.2,5.4-6.3,8.1c4.6-5.9,9.8-11.1,15.7-15.7c-2.7,2.1-5.4,4.2-8.1,6.3c5.6-4.3,11.7-7.8,18.1-10.6    c-3.2,1.3-6.4,2.7-9.6,4c7.1-3,14.4-5,22-6c-3.5,0.5-7.1,1-10.6,1.4c7.4-0.9,14.8-0.9,22.2,0c-3.5-0.5-7.1-1-10.6-1.4    c7.6,1.1,14.9,3.1,22,6c-3.2-1.3-6.4-2.7-9.6-4c6.5,2.8,12.5,6.4,18.1,10.6c-2.7-2.1-5.4-4.2-8.1-6.3c5.9,4.6,11.1,9.8,15.7,15.7    c-2.1-2.7-4.2-5.4-6.3-8.1c4.3,5.6,7.8,11.7,10.6,18.1c-1.3-3.2-2.7-6.4-4-9.6c3,7.1,5,14.4,6,22c-0.5-3.5-1-7.1-1.4-10.6    c0.9,7.4,0.9,14.8,0,22.2c0.5-3.5,1-7.1,1.4-10.6c-1.1,7.6-3.1,14.9-6,22c1.3-3.2,2.7-6.4,4-9.6c-2.8,6.5-6.4,12.5-10.6,18.1    c2.1-2.7,4.2-5.4,6.3-8.1c-4.6,5.9-9.8,11.1-15.7,15.7c2.7-2.1,5.4-4.2,8.1-6.3c-5.6,4.3-11.7,7.8-18.1,10.6    c3.2-1.3,6.4-2.7,9.6-4c-7.1,3-14.4,5-22,6c3.5-0.5,7.1-1,10.6-1.4C704.1,556,700.4,556.3,696.7,556.3c-10.3,0.1-21,4.4-28.3,11.7    c-6.9,6.9-12.2,18.3-11.7,28.3c1,21.5,17.6,40.2,40,40c24.1-0.2,49.6-7.1,69.3-21.3c12.9-9.3,22.6-18.9,32.1-31.6    c7.1-9.6,12-20.2,16.1-31.4c8.6-23,8.7-50.3,2.1-73.7c-6.4-22.6-19.8-44.9-38.1-59.9c-12.3-10-23.8-16.9-38.5-22.8    c-11.6-4.6-23.7-6.6-36.2-7.6c-24.1-2-50.2,4.8-70.9,17.4c-20.1,12.2-37.9,30.6-47.7,52.1c-3.1,6.8-6.1,13.7-8.1,20.8    c-2.1,7.4-3,15-3.9,22.6c-1.5,12.8-0.2,25.6,2.3,38.2c5,25,19.9,50.3,39.7,66.5c13,10.6,25.2,17.8,40.9,23.8    c12.8,4.9,27.1,6.8,40.7,6.9c20.9,0.2,41-18.5,40-40C735.7,574.5,719.1,556.5,696.7,556.3z"/></g></g><g><g><path d="M550.7,894.2c12,0,24.1,0,36.1,0c28.9,0,57.9,0,86.8,0c35,0,70.1,0,105.1,0c30.3,0,60.6,0,90.9,0    c14.8,0,29.6,0.3,44.4,0c0.2,0,0.4,0,0.7,0c20.9,0,41-18.4,40-40c-1-21.7-17.6-40-40-40c-12,0-24.1,0-36.1,0    c-28.9,0-57.9,0-86.8,0c-35,0-70.1,0-105.1,0c-30.3,0-60.6,0-90.9,0c-14.8,0-29.6-0.3-44.4,0c-0.2,0-0.4,0-0.7,0    c-20.9,0-41,18.4-40,40C511.7,875.9,528.3,894.2,550.7,894.2L550.7,894.2z"/></g></g><g><g><path d="M98.7,894.2c31.9,0,63.8,0,95.8,0c51.1,0,102.1,0,153.2,0c11.7,0,23.4,0,35,0c20.9,0,41-18.4,40-40    c-1-21.7-17.6-40-40-40c-31.9,0-63.8,0-95.8,0c-51.1,0-102.1,0-153.2,0c-11.7,0-23.4,0-35,0c-20.9,0-41,18.4-40,40    C59.7,875.9,76.3,894.2,98.7,894.2L98.7,894.2z"/></g></g><g><g><path d="M466.7,898.3c-3.7,0-7.4-0.3-11.1-0.7c3.5,0.5,7.1,1,10.6,1.4c-7.6-1.1-14.9-3.1-22-6    c3.2,1.3,6.4,2.7,9.6,4c-6.5-2.8-12.5-6.4-18.1-10.6c2.7,2.1,5.4,4.2,8.1,6.3c-5.9-4.6-11.1-9.8-15.7-15.7    c2.1,2.7,4.2,5.4,6.3,8.1c-4.3-5.6-7.8-11.7-10.6-18.1c1.3,3.2,2.7,6.4,4,9.6c-3-7.1-5-14.4-6-22c0.5,3.5,1,7.1,1.4,10.6    c-0.9-7.4-0.9-14.8,0-22.2c-0.5,3.5-1,7.1-1.4,10.6c1.1-7.6,3.1-14.9,6-22c-1.3,3.2-2.7,6.4-4,9.6c2.8-6.5,6.4-12.5,10.6-18.1    c-2.1,2.7-4.2,5.4-6.3,8.1c4.6-5.9,9.8-11.1,15.7-15.7c-2.7,2.1-5.4,4.2-8.1,6.3c5.6-4.3,11.7-7.8,18.1-10.6    c-3.2,1.3-6.4,2.7-9.6,4c7.1-3,14.4-5,22-6c-3.5,0.5-7.1,1-10.6,1.4c7.4-0.9,14.8-0.9,22.2,0c-3.5-0.5-7.1-1-10.6-1.4    c7.6,1.1,14.9,3.1,22,6c-3.2-1.3-6.4-2.7-9.6-4c6.5,2.8,12.5,6.4,18.1,10.6c-2.7-2.1-5.4-4.2-8.1-6.3c5.9,4.6,11.1,9.8,15.7,15.7    c-2.1-2.7-4.2-5.4-6.3-8.1c4.3,5.6,7.8,11.7,10.6,18.1c-1.3-3.2-2.7-6.4-4-9.6c3,7.1,5,14.4,6,22c-0.5-3.5-1-7.1-1.4-10.6    c0.9,7.4,0.9,14.8,0,22.2c0.5-3.5,1-7.1,1.4-10.6c-1.1,7.6-3.1,14.9-6,22c1.3-3.2,2.7-6.4,4-9.6c-2.8,6.5-6.4,12.5-10.6,18.1    c2.1-2.7,4.2-5.4,6.3-8.1c-4.6,5.9-9.8,11.1-15.7,15.7c2.7-2.1,5.4-4.2,8.1-6.3c-5.6,4.3-11.7,7.8-18.1,10.6    c3.2-1.3,6.4-2.7,9.6-4c-7.1,3-14.4,5-22,6c3.5-0.5,7.1-1,10.6-1.4C474.1,898,470.4,898.3,466.7,898.3c-10.3,0.1-21,4.4-28.3,11.7    c-6.9,6.9-12.2,18.3-11.7,28.3c1,21.5,17.6,40.2,40,40c24.1-0.2,49.6-7.1,69.3-21.3c12.9-9.3,22.6-18.9,32.1-31.6    c7.1-9.6,12-20.2,16.1-31.4c8.6-23,8.7-50.3,2.1-73.7c-6.4-22.6-19.8-44.9-38.1-59.9c-12.3-10-23.8-16.9-38.5-22.8    c-11.6-4.6-23.7-6.6-36.2-7.6c-24.1-2-50.2,4.8-70.9,17.4c-20.1,12.2-37.9,30.6-47.7,52.1c-3.1,6.8-6.1,13.7-8.1,20.8    c-2.1,7.4-3,15-3.9,22.6c-1.5,12.8-0.2,25.6,2.3,38.2c5,25,19.9,50.3,39.7,66.5c13,10.6,25.2,17.8,40.9,23.8    c12.8,4.9,27.1,6.8,40.7,6.9c20.9,0.2,41-18.5,40-40C505.7,916.5,489.1,898.5,466.7,898.3z"/></g></g><text x="0" y="1039" fill="#000000" font-size="5px" font-weight="bold" font-family="'Helvetica Neue', Helvetica, Arial-Unicode, Arial, Sans-serif">Created by shashank singh</text><text x="0" y="1044" fill="#000000" font-size="5px" font-weight="bold" font-family="'Helvetica Neue', Helvetica, Arial-Unicode, Arial, Sans-serif">from the Noun Project</text></svg>