<svg xmlns="http://www.w3.org/2000/svg" xmlns:xlink="http://www.w3.org/1999/xlink" xml:space="preserve" version="1.1" style="shape-rendering:geometricPrecision;text-rendering:geometricPrecision;image-rendering:optimizeQuality;" viewBox="0 0 532 665" x="0px" y="0px" fill-rule="evenodd" clip-rule="evenodd"><defs><style type="text/css">
   
    .fil0 {fill:black;fill-rule:nonzero}
   
  </style></defs><g><path class="fil0" d="M511 276l-113 0c-1,40 -6,77 -14,111 28,8 54,18 75,31 31,-40 50,-89 52,-142zm-35 152l0 0 -4 6c-6,7 -12,13 -18,20l0 0 -1 0 -1 2 -1 0 -1 1 -1 1 0 0 -1 1 -3 3 0 0 -1 0 0 1 -2 1 -1 1 -1 2 0 0 -2 1 -1 1 0 0 -1 1 -1 1 -1 0 -1 1 -2 2 -1 1 0 0 -1 1c-6,4 -11,8 -17,11l0 1 -1 0 -2 1c-23,16 -50,27 -78,34l-2 1 -2 0 -1 1 0 0 -2 0 -5 1 -2 1 -1 0 -1 0 -2 0 0 0 -1 1 -2 0 0 0 -2 0 -4 1 -1 0 0 0 -2 0 -1 0 -1 0 -2 1 -2 0 -2 0 0 0 -1 0 -2 0 0 0 -2 1 -2 0 0 0 -2 0 -1 0 -1 0 -1 0 -2 0 0 0 -2 0 -1 0 -1 0 -2 0 0 0 -2 0 -1 0 -1 1 -1 0 -2 0 -2 0 -2 0 0 -1 -2 0 -1 0 -1 0 -2 0 -1 0 0 0 -2 0 -1 0 -1 0 -2 0 0 0 -2 0 -2 0 0 0 -1 0 -2 -1 0 0 -2 0 -1 0 -1 0 -2 0 -2 0 -1 -1 -1 0 -1 0 -2 0 0 0 -2 0 -5 -1 -2 0c-55,-10 -104,-36 -142,-74 -7,-7 -13,-13 -18,-20l-5 -6 1 0c-35,-45 -56,-101 -56,-162 0,-61 21,-118 56,-163l-1 0 6 -6 2 -3 0 0 1 -1 1 -1 0 0 1 -2 3 -2 0 -1 1 -1 1 -1 0 0 1 -1 1 -2 1 0 1 -1 1 -1 0 0 1 -2 1 0 0 0c38,-38 87,-65 142,-74l2 0 5 -1 2 0 0 0 2 -1 1 0 1 0 1 0 2 0 2 -1 1 0 1 0 2 0 0 0 2 0 1 0 0 0 2 0 2 0 0 0 2 -1 1 0 1 0 2 0 0 0 1 0 2 0 1 0 1 0 2 0 0 0 2 0 2 0 2 0 1 0 1 0 1 0 2 0 0 0 2 0 1 0 1 0 2 0 0 0 2 0 1 1 1 0 1 0 2 0 0 0 2 0 2 0 0 0 2 0 1 0 0 0 2 1 2 0 2 0 1 0 1 0 2 1 0 0 1 0 4 0 2 1 0 0 2 0 1 0 0 0 2 1 1 0 1 0 2 0 5 1 2 1 0 0 1 0 2 1 2 0c28,7 55,19 78,34l2 1 1 1 0 0c6,4 11,8 17,12l1 1 0 0 1 1 2 1 1 1 1 1 1 0 1 2 0 0 1 1 2 1 0 0 1 1 1 1 2 1 0 1 1 1 0 0 3 2 1 1 0 0 1 2 1 1 1 0 1 1 1 1 0 0 0 0 1 2 1 0 1 1 1 1 0 0 1 2 1 1 0 0 2 1 0 1 1 1 2 2 1 2 1 0 1 1 1 1 0 0 2 3 5 6 0 0c35,45 56,102 56,163 0,61 -21,117 -56,162zm-403 -10c21,-13 46,-23 75,-31 -9,-34 -14,-71 -14,-111l-114 0c2,53 22,102 53,142zm-53 -162l114 0c0,-40 5,-78 14,-111 -29,-8 -54,-19 -75,-31 -31,39 -51,88 -53,142zm439 -142c-21,12 -47,23 -75,31 8,33 13,71 14,111l113 0c-2,-54 -21,-103 -52,-142zm-134 -87l0 0c13,14 26,32 36,54 7,13 12,28 17,44 26,-6 49,-16 68,-27 -13,-14 -28,-26 -44,-37l-1 -1 0 0 -2 -1 -1 0 0 0 -1 -1 -1 -1 -1 0 -1 -1 -1 0 0 -1 -1 0 -1 -1 -1 0 -1 -1 -1 0 0 -1 -2 -1 -1 0 -1 -1 -1 0 0 -1 -2 0 -1 -1 0 0 -1 -1 -1 0 -1 0 -1 -1 -1 0 0 -1 -2 0 -1 -1 0 0 -1 -1 -1 0 -1 0 -4 -2 0 0 -1 -1 0 0 -1 0 0 0 -1 -1 -1 0 -1 0 0 0 -1 -1 0 0 -1 0 -2 -1 0 0 0 0 -2 -1 -1 0 0 0 -1 0 0 -1 -2 0 0 0 0 0 -1 -1 -1 0 -1 0 0 0 0 0 -1 -1 -1 0 0 0 0 0 -2 -1 0 0 -1 0 0 0 -1 0 -2 -1 0 0 -1 0 -2 -1 -1 0 -1 0 -1 -1 0 0 0 0 -1 0 -1 0 -1 0 0 0 0 -1 -1 0 -1 0 0 0 -1 0 -2 -1zm-118 0c-20,5 -38,12 -55,21l-1 0c-4,3 -8,5 -12,7l-1 1 -4 3 -1 0 -1 0 -1 1 0 0c-3,2 -7,5 -10,7l0 0 -1 1 -1 1 0 0 -1 1 -2 1 0 0 -1 0 -1 1 0 0 -2 2 0 0 -1 1 -2 1 0 0 -1 1 -1 1 0 0 -1 1 -1 1 0 0 -1 1 -1 1 -1 1 -1 1 0 0 -2 1 -1 1 0 0 -1 1 -1 1 0 0 -1 1 -1 1 0 0 -1 1 -1 1c-2,2 -4,4 -6,6 19,11 42,21 67,27 5,-16 11,-31 17,-44 11,-22 23,-40 37,-54zm-86 438c3,2 7,4 10,6l0 0 1 1 1 1 1 0 4 3 1 0c4,3 8,5 12,7l1 0c17,10 35,17 55,21 -14,-13 -26,-31 -37,-53 -6,-14 -12,-29 -17,-45 -25,7 -48,16 -67,27l0 0 1 1 1 1 0 0 1 1 1 1 0 0 1 1 1 1 0 1 1 1 1 1 0 0 1 1 1 1 0 0 1 1 1 1 0 0 1 1 2 1 0 0 1 1 1 1 1 1 1 1 0 0 1 1 1 1 0 0 1 0 1 1 0 0 2 1 1 1 0 0 2 2 0 0 1 1 1 1 0 0 2 1 1 1 0 0 1 1 1 0 0 1zm204 39l0 0 2 0 1 0 0 -1 1 0 1 0 0 0 0 0 1 0 1 0 1 -1 0 0 0 0 1 0 1 0 1 -1 2 0 1 -1 0 0 2 0 1 0 0 0 1 -1 0 0 2 0 0 0 0 -1 1 0 1 0 0 0 0 0 1 -1 1 0 1 0 0 0 0 0 2 -1 0 0 1 0 0 0 1 -1 2 0 0 -1 0 0 2 -1 1 0 0 0 1 0 0 0 1 -1 1 0 1 0 0 -1 1 0 0 0 1 0 0 0 4 -2 1 0 1 -1 1 -1 0 0 1 0 2 -1 0 0 1 0 1 -1 1 0 1 -1 1 -1 0 0 1 0 2 -1 0 0 1 -1 1 0 1 -1 2 -1 0 0 1 -1 1 0 1 -1 1 0 1 -1 0 0 1 -1 1 0 1 -1 1 0 1 -1 0 0 1 -1 2 -1 0 0 1 0c13,-10 26,-20 38,-31l0 -1 1 -1 1 -1 0 0 1 -1 1 -1 0 0 1 -1 1 -1 0 0c-19,-11 -42,-20 -68,-27 -5,16 -10,31 -17,45 -10,22 -23,40 -36,53zm39 -355c-30,7 -63,11 -98,11 -35,0 -68,-4 -99,-11 -8,32 -13,68 -13,107l224 0c-1,-39 -6,-75 -14,-107zm-192 -19c29,6 61,10 94,10 33,0 64,-4 93,-10 -5,-15 -10,-28 -16,-41 -20,-43 -48,-69 -77,-69 -30,0 -57,26 -78,69 -6,13 -11,26 -16,41zm-5 252c31,-7 64,-10 99,-10 35,0 68,3 98,10 8,-32 13,-68 14,-106l-224 0c0,38 5,74 13,106zm192 19c-29,-6 -60,-9 -93,-9 -33,0 -65,3 -94,9 5,15 10,29 16,41 21,43 48,70 78,70 29,0 57,-27 77,-70 6,-12 11,-26 16,-41z"/></g><text x="0" y="547" fill="#000000" font-size="5px" font-weight="bold" font-family="'Helvetica Neue', Helvetica, Arial-Unicode, Arial, Sans-serif">Created by Bismillah</text><text x="0" y="552" fill="#000000" font-size="5px" font-weight="bold" font-family="'Helvetica Neue', Helvetica, Arial-Unicode, Arial, Sans-serif">from the Noun Project</text></svg>