<svg xmlns="http://www.w3.org/2000/svg" xmlns:xlink="http://www.w3.org/1999/xlink" version="1.1" x="0px" y="0px" viewBox="0 0 64 80" style="enable-background:new 0 0 64 64;" xml:space="preserve"><title>Offer-businessoffer-promotion-special-deal-benefit</title><path d="M12,53h-2v-8H6v14h8V45h-2V53z M12,57h-2v-2h2V57z"/><path d="M55.6,49.7L40,53l-14.2-2l0.1-1v-1h7c1.1,0,2-0.9,2-2s-0.9-2-2-2H22.1L16,46.8v9.5l11.8,3.6c0.2,0.1,0.3,0.1,0.5,0l28.2-6.4  c1.1-0.2,1.7-1.3,1.5-2.3C57.7,50.2,56.7,49.5,55.6,49.7L55.6,49.7z"/><path d="M56,13c0-0.6-0.4-1-1-1H43V8c0-1.7-1.3-3-3-3h-6c-1.7,0-3,1.3-3,3v4H19c-0.6,0-1,0.4-1,1v4h38V13z M33,8c0-0.6,0.4-1,1-1h6  c0.6,0,1,0.4,1,1v4h-8V8z"/><rect x="35" y="19" width="4" height="4"/><path d="M19,38h36c0.6,0,1-0.4,1-1V19H41v6h-8v-6H18v18C18,37.6,18.4,38,19,38z"/><rect x="8" y="23" width="2" height="2"/><rect x="10" y="25" width="2" height="2"/><rect x="8" y="27" width="2" height="2"/><rect x="6" y="25" width="2" height="2"/><rect x="56" y="2" width="2" height="2"/><rect x="58" y="4" width="2" height="2"/><rect x="56" y="6" width="2" height="2"/><rect x="54" y="4" width="2" height="2"/><rect x="42" y="42" width="2" height="2"/><rect x="44" y="44" width="2" height="2"/><rect x="42" y="46" width="2" height="2"/><rect x="40" y="44" width="2" height="2"/><text x="0" y="79" fill="#000000" font-size="5px" font-weight="bold" font-family="'Helvetica Neue', Helvetica, Arial-Unicode, Arial, Sans-serif">Created by Wichai Wi</text><text x="0" y="84" fill="#000000" font-size="5px" font-weight="bold" font-family="'Helvetica Neue', Helvetica, Arial-Unicode, Arial, Sans-serif">from the Noun Project</text></svg>