<svg xmlns="http://www.w3.org/2000/svg" xmlns:xlink="http://www.w3.org/1999/xlink" version="1.1" x="0px" y="0px" viewBox="0 0 100 125" style="enable-background:new 0 0 100 100;" xml:space="preserve"><g><path d="M29,82h13V63.1c0-1.7,1.3-3,3-3h10.3c1.7,0,3,1.3,3,3V82H71c1.7,0,3-1.3,3-3V43.2c0-0.8-0.3-1.6-0.9-2.1l-21-21   c-1.2-1.2-3.1-1.2-4.2,0l-21,21c-0.6,0.6-0.9,1.3-0.9,2.1V79C26,80.7,27.3,82,29,82z"/></g><text x="0" y="115" fill="#000000" font-size="5px" font-weight="bold" font-family="'Helvetica Neue', Helvetica, Arial-Unicode, Arial, Sans-serif">Created by Shastry</text><text x="0" y="120" fill="#000000" font-size="5px" font-weight="bold" font-family="'Helvetica Neue', Helvetica, Arial-Unicode, Arial, Sans-serif">from the Noun Project</text></svg>