<svg xmlns="http://www.w3.org/2000/svg" xmlns:xlink="http://www.w3.org/1999/xlink" version="1.1" x="0px" y="0px" viewBox="0 0 100 125" enable-background="new 0 0 100 100" xml:space="preserve"><path d="M50,5C25.147,5,5,25.147,5,50c0,24.852,20.147,45,45,45c24.854,0,45-20.148,45-45C95,25.147,74.854,5,50,5z M28.667,39.889  c0-3.881,3.146-7.027,7.027-7.027c3.881,0,7.027,3.146,7.027,7.027c0,3.881-3.146,7.027-7.027,7.027  C31.813,46.916,28.667,43.77,28.667,39.889z M65.407,70.801c-0.923,0.608-2.158,0.354-2.767-0.562  c-0.186-0.275-4.315-6.26-12.641-6.26c-8.339,0-12.469,6.006-12.641,6.261c-0.615,0.915-1.854,1.165-2.771,0.554  c-0.917-0.609-1.17-1.842-0.564-2.763c0.217-0.329,5.427-8.052,15.976-8.052c10.55,0,15.759,7.724,15.977,8.052  C66.584,68.953,66.33,70.193,65.407,70.801z M64.307,46.915c-3.882,0-7.027-3.146-7.027-7.027c0-3.881,3.146-7.027,7.027-7.027  c3.881,0,7.026,3.146,7.026,7.027C71.333,43.769,68.188,46.915,64.307,46.915z"/><text x="0" y="115" fill="#000000" font-size="5px" font-weight="bold" font-family="'Helvetica Neue', Helvetica, Arial-Unicode, Arial, Sans-serif">Created by Luke Peek</text><text x="0" y="120" fill="#000000" font-size="5px" font-weight="bold" font-family="'Helvetica Neue', Helvetica, Arial-Unicode, Arial, Sans-serif">from the Noun Project</text></svg>