<svg xmlns="http://www.w3.org/2000/svg" viewBox="0 0 64 80" x="0px" y="0px"><path d="M32,2A30,30,0,1,0,62,32,30.034,30.034,0,0,0,32,2Zm0,58A28,28,0,1,1,60,32,28.032,28.032,0,0,1,32,60Z"/><path d="M44,43H28.071l13.95-13.95,1.414-1.414a5,5,0,0,0-7.071-7.071L34.95,21.979,20.808,36.121l-.009.012a1,1,0,0,0-.192.29c-.012.028-.02.055-.03.083a1.041,1.041,0,0,0-.041.115l-1.515,7.172a.986.986,0,0,0-.014.171c0,.013-.007.023-.007.036l0,.015a1,1,0,0,0,.068.338c.01.025.02.048.032.072a.991.991,0,0,0,.188.28A1,1,0,0,0,20,45H44a1,1,0,0,0,0-2ZM25.16,41.888,21.3,42.7l.816-3.864,1.524,1.524ZM37.778,21.979a3.075,3.075,0,0,1,4.243,0,3,3,0,0,1,0,4.243l-.708.707-4.242-4.242ZM35.657,24.1l2.121,2.121L39.9,28.343,27.171,41.071,25.05,38.95l-2.121-2.122Z"/><text x="0" y="79" fill="#000000" font-size="5px" font-weight="bold" font-family="'Helvetica Neue', Helvetica, Arial-Unicode, Arial, Sans-serif">Created by iconixar</text><text x="0" y="84" fill="#000000" font-size="5px" font-weight="bold" font-family="'Helvetica Neue', Helvetica, Arial-Unicode, Arial, Sans-serif">from the Noun Project</text></svg>