<svg xmlns="http://www.w3.org/2000/svg" xmlns:xlink="http://www.w3.org/1999/xlink" xml:space="preserve" version="1.1" style="shape-rendering:geometricPrecision;text-rendering:geometricPrecision;image-rendering:optimizeQuality;" viewBox="0 0 333 416.25" x="0px" y="0px" fill-rule="evenodd" clip-rule="evenodd"><defs><style type="text/css">
   
    .fil0 {fill:black;fill-rule:nonzero}
   
  </style></defs><g><path class="fil0" d="M63 69l207 0c18,0 32,14 32,32l0 132c0,17 -14,31 -32,31l-207 0c-18,0 -32,-14 -32,-31l0 -132c0,-18 14,-32 32,-32zm211 177l-63 -62 -15 12c-21,17 -38,17 -59,0l-15 -12 -62 62c1,1 2,1 3,1l207 0c2,0 3,0 4,-1zm-49 -74l59 60 0 -109 -59 49zm-176 60l60 -60 -60 -49 0 109zm0 -131l99 81c15,12 23,12 37,0l99 -81c0,-8 -6,-14 -14,-14l-207 0c-8,0 -14,6 -14,14z"/></g><text x="0" y="348" fill="#000000" font-size="5px" font-weight="bold" font-family="'Helvetica Neue', Helvetica, Arial-Unicode, Arial, Sans-serif">Created by Angelina</text><text x="0" y="353" fill="#000000" font-size="5px" font-weight="bold" font-family="'Helvetica Neue', Helvetica, Arial-Unicode, Arial, Sans-serif">from the Noun Project</text></svg>