<svg xmlns="http://www.w3.org/2000/svg" xmlns:xlink="http://www.w3.org/1999/xlink" version="1.1" x="0px" y="0px" viewBox="0 0 70 87.5" style="enable-background:new 0 0 70 70;" xml:space="preserve"><g><g><path d="M61,25H47V3H3v54.09375C3,62.5556641,7.4433594,67,12.9052734,67H55v-0.0506592C55.329895,66.979248,55.6624756,67,56,67    c6.0654297,0,11-4.9345703,11-11c0-5.7214584,0-19.0044403,0-25C67,27.6914063,64.3085938,25,61,25z M12.9052734,65    C8.5458984,65,5,61.453125,5,57.09375V5h40v20c0,10.3364372,0,20.649437,0,31c0,3.7198486,1.8607178,7.0083008,4.6952515,9    H12.9052734z M65,56c0,4.9628906-4.0371094,9-9,9s-9-4.0371094-9-9c0-8.3450127,0-15.6826172,0-29h9.5404663    C53.8964462,29.9445267,55.4764595,31.9818668,55,49h2V31c0-2.2060547,1.7939453-4,4-4s4,1.7939453,4,4v18V56z"/></g><g><rect x="10" y="13" width="30" height="2"/></g><g><rect x="10" y="19" width="30" height="2"/></g><g><rect x="28" y="29" width="12" height="2"/></g><g><rect x="10" y="29" width="12" height="2"/></g><g><rect x="28" y="35" width="12" height="2"/></g><g><rect x="10" y="35" width="12" height="2"/></g><g><rect x="28" y="41" width="12" height="2"/></g><g><rect x="10" y="41" width="12" height="2"/></g><g><rect x="28" y="47" width="12" height="2"/></g><g><rect x="10" y="47" width="12" height="2"/></g><g><rect x="28" y="53" width="12" height="2"/></g><g><rect x="10" y="53" width="12" height="2"/></g><g><rect x="28" y="59" width="12" height="2"/></g><g><rect x="10" y="59" width="12" height="2"/></g></g><text x="0" y="85" fill="#000000" font-size="5px" font-weight="bold" font-family="'Helvetica Neue', Helvetica, Arial-Unicode, Arial, Sans-serif">Created by rivercon</text><text x="0" y="90" fill="#000000" font-size="5px" font-weight="bold" font-family="'Helvetica Neue', Helvetica, Arial-Unicode, Arial, Sans-serif">from the Noun Project</text></svg>